<svg width="21" height="21" viewBox="0 0 21 21" fill="none" xmlns="http://www.w3.org/2000/svg">
<path d="M20.2228 8.59858H19.9145H12.6321V5.7832H20.2228V8.59858Z" fill="#FBB133"/>
<path d="M12.0149 9.40625H9.68311V20.1919H12.0149V9.40625Z" fill="#29AAE3"/>
<path d="M12.0149 5.7832H9.68311V8.59858H12.0149V5.7832Z" fill="#29AAE3"/>
<path d="M0.777344 5.7832H9.06548V8.59858H1.78343H0.777344V5.7832Z" fill="#FBB133"/>
<path d="M9.06539 9.40625H2.17212V20.1919H9.06539V9.40625Z" fill="#FFB947"/>
<path d="M19.5258 9.40625H12.6321V20.1919H19.5258V9.40625Z" fill="#FFB947"/>
<path d="M8.11932 2.87811C7.57503 2.31251 6.6925 2.31269 6.14782 2.87865C5.60318 3.4444 5.60318 4.36197 6.14716 4.92756C6.43325 5.22429 6.81125 5.36104 7.18519 5.34718L7.1833 5.35038H10.4991L10.4998 1.90373C10.4983 1.90427 10.4976 1.90478 10.4967 1.90478C10.5097 1.51644 10.3776 1.12523 10.0922 0.828501C9.54789 0.263084 8.66588 0.262538 8.12002 0.82901C7.57569 1.39479 7.57503 2.31251 8.11932 2.87811Z" fill="#29AAE3"/>
<path d="M12.8807 2.87811C13.4252 2.31251 14.3077 2.31269 14.8525 2.87865C15.3967 3.4444 15.397 4.36197 14.8532 4.92756C14.5671 5.22429 14.1894 5.36104 13.8152 5.34718L13.8176 5.35038H10.5018L10.5002 1.90373C10.5021 1.90427 10.5021 1.90478 10.503 1.90478C10.4908 1.51644 10.6228 1.12523 10.9078 0.828501C11.4523 0.263084 12.3349 0.262538 12.88 0.82901C13.4242 1.39479 13.4252 2.31251 12.8807 2.87811Z" fill="#29AAE3"/>
<path d="M19.9145 21.0007H1.78338C1.56855 21.0007 1.39478 20.8202 1.39478 20.5968V9.00341C1.39478 8.78036 1.56855 8.59961 1.78338 8.59961H19.9145C20.1291 8.59961 20.3031 8.78036 20.3031 9.00341V20.5968C20.3031 20.8202 20.1291 21.0007 19.9145 21.0007ZM2.17217 20.193H19.5259V9.40742H2.17217V20.193Z" fill="#393939"/>
<path d="M20.6114 9.40738H0.388608C0.173811 9.40738 0 9.22641 0 9.00336V5.3804C0 5.15735 0.173811 4.97656 0.388608 4.97656H20.6114C20.826 4.97656 21 5.15735 21 5.3804V9.00336C21 9.22641 20.826 9.40738 20.6114 9.40738ZM0.777251 8.59957H20.2227V5.78419H0.777251V8.59957Z" fill="#393939"/>
<path d="M9.84286 20.2341H9.06543V9.36523H9.84286V20.2341Z" fill="#393939"/>
<path d="M12.632 20.2341H11.8547V9.36523H12.632V20.2341Z" fill="#393939"/>
<path d="M9.84286 8.64081H9.06543V5.74219H9.84286V8.64081Z" fill="#393939"/>
<path d="M12.632 8.64081H11.8547V5.74219H12.632V8.64081Z" fill="#393939"/>
<path d="M10.499 5.75375H7.18319C7.16919 5.75375 7.15515 5.75287 7.1415 5.75127L7.1338 5.75164C6.65528 5.75164 6.20734 5.56019 5.87256 5.21302C5.17735 4.49009 5.17767 3.31489 5.87291 2.59265C6.25778 2.19275 6.80021 1.99902 7.3346 2.06135C7.27618 1.52026 7.44656 0.957321 7.84508 0.54305C8.18262 0.192861 8.63038 0 9.10635 0C9.58263 0 10.0302 0.192679 10.3669 0.542505C10.7054 0.894477 10.8888 1.36061 10.8861 1.86067C10.8874 1.87471 10.8885 1.88911 10.8885 1.9033L10.8874 5.34995C10.8874 5.57281 10.7133 5.75375 10.499 5.75375ZM7.19159 4.94593H10.1102L10.1111 1.95461C10.1083 1.93348 10.1076 1.91199 10.1083 1.89035C10.1179 1.59467 10.0147 1.31889 9.81727 1.1136C9.43804 0.719727 8.77615 0.718673 8.39472 1.11432C8.00265 1.52205 8.00233 2.18493 8.39402 2.59215C8.4699 2.67099 8.50784 2.77431 8.50784 2.87767C8.50784 2.98103 8.4699 3.08439 8.39402 3.16324C8.24208 3.32093 7.99617 3.32093 7.84441 3.16324C7.46483 2.76882 6.80294 2.76864 6.42252 3.16375C6.03049 3.57114 6.03014 4.23421 6.42182 4.64157C6.61307 4.83974 6.87847 4.9511 7.14749 4.94364C7.16236 4.94364 7.17671 4.94433 7.19159 4.94593Z" fill="#393939"/>
<path d="M13.8173 5.75375H10.5015C10.287 5.75375 10.1129 5.57314 10.1129 5.35013L10.1113 1.90348C10.1113 1.89017 10.112 1.87667 10.1132 1.86351C10.111 1.36239 10.2939 0.895168 10.6324 0.542687C10.9694 0.192679 11.4175 0 11.8933 0C12.3698 0 12.8179 0.192861 13.1546 0.54305C13.5531 0.957321 13.7236 1.52026 13.6652 2.06135C14.1998 1.99974 14.7422 2.19275 15.1271 2.59265C15.822 3.31507 15.8223 4.49028 15.1278 5.21266C14.7928 5.56019 14.3447 5.75164 13.8665 5.75164L13.8587 5.75127C13.845 5.75287 13.8313 5.75375 13.8173 5.75375ZM10.8901 4.94593H13.7664C13.7869 4.9431 13.8077 4.94168 13.8286 4.9431C13.8296 4.9431 13.8306 4.9431 13.8316 4.9431C14.139 4.9431 14.3912 4.83585 14.5785 4.6412C14.9699 4.23439 14.9695 3.57129 14.5775 3.16375C14.1974 2.769 13.5353 2.76882 13.1552 3.16324C13.0035 3.32093 12.7574 3.32093 12.6056 3.16324C12.5297 3.08439 12.4918 2.98103 12.4918 2.87767C12.4918 2.77431 12.5297 2.67099 12.6056 2.59215C12.9973 2.18493 12.997 1.52205 12.6049 1.11414C12.2252 0.719545 11.5624 0.719036 11.1824 1.1136C10.9855 1.31889 10.8819 1.59504 10.8908 1.89104C10.8918 1.91148 10.8908 1.93155 10.8888 1.95126L10.8901 4.94593Z" fill="#393939"/>
</svg>
