<svg width="287" height="180" viewBox="0 0 287 180" fill="none" xmlns="http://www.w3.org/2000/svg">
<g clip-path="url(#clip0_914_2716)">
<path d="M72.9935 13.5886L72.4972 13.7216L60.7734 16.863L59.6106 12.5234L71.8307 9.24906L72.9935 13.5886Z" fill="#FBB133"/>
<path d="M60.1132 18.375L56.3594 19.3809L60.814 36.0056L64.5678 34.9997L60.1132 18.375Z" fill="#29AAE3"/>
<path d="M58.6168 12.791L54.8629 13.7969L56.0257 18.1364L59.7796 17.1306L58.6168 12.791Z" fill="#29AAE3"/>
<path d="M40.5258 17.6387L53.8687 14.0634L55.0315 18.403L43.3082 21.5442L41.6885 21.9782L40.5258 17.6387Z" fill="#FBB133"/>
<path d="M55.3651 19.6476L44.2677 22.6211L48.7223 39.2458L59.8197 36.2723L55.3651 19.6476Z" fill="#FFB947"/>
<path d="M72.2052 15.1356L61.1071 18.1094L65.5616 34.7341L76.6598 31.7604L72.2052 15.1356Z" fill="#FFB947"/>
<path d="M51.1453 9.99148C50.0355 9.35446 48.6148 9.73544 47.9717 10.8428C47.3285 11.9497 47.7075 13.364 48.8168 14.0012C49.4 14.3352 50.065 14.3829 50.6613 14.2002L50.6595 14.206L55.9976 12.7756L54.5752 7.46273C54.5729 7.46424 54.5721 7.46531 54.5707 7.46568C54.4312 6.8615 54.057 6.31548 53.475 5.98121C52.3651 5.3445 50.945 5.72412 50.3002 6.83274C49.6575 7.93963 50.0355 9.35446 51.1453 9.99148Z" fill="#29AAE3"/>
<path d="M58.8104 7.93856C59.4534 6.8319 60.8742 6.45148 61.985 7.08883C63.0947 7.72613 63.4742 9.1403 62.8324 10.2467C62.4944 10.8275 61.9428 11.2012 61.3346 11.3412L61.3397 11.3452L56.0017 12.7755L54.5757 7.46354C54.579 7.46356 54.5792 7.46435 54.5805 7.46398C54.4006 6.87064 54.4514 6.21072 54.7878 5.63039C55.4308 4.52399 56.8514 4.14245 57.963 4.78043C59.0727 5.41778 59.4534 6.8319 58.8104 7.93856Z" fill="#29AAE3"/>
<path d="M77.619 32.8369L48.43 40.658C48.0842 40.7507 47.7299 40.5476 47.6376 40.2032L42.8494 22.3333C42.7573 21.9895 42.9624 21.636 43.3082 21.5433L72.4972 13.7221C72.8428 13.6295 73.1975 13.8331 73.2897 14.1769L78.0779 32.0468C78.1701 32.3911 77.9646 32.7443 77.619 32.8369ZM48.7223 39.2455L76.6598 31.7596L72.2052 15.1349L44.2678 22.6207L48.7223 39.2455Z" fill="#393939"/>
<path d="M73.9528 14.667L41.3965 23.3904C41.0507 23.4831 40.6962 23.2791 40.604 22.9353L39.1077 17.351C39.0156 17.0072 39.2207 16.6535 39.5665 16.5609L72.1228 7.83745C72.4684 7.74485 72.8232 7.94846 72.9153 8.29226L74.4116 13.8766C74.5037 14.2204 74.2984 14.5744 73.9528 14.667ZM41.6885 21.9777L72.9936 13.5895L71.8308 9.24994L40.5258 17.6381L41.6885 21.9777Z" fill="#393939"/>
<path d="M61.0884 36.0017L59.8369 36.3371L55.3479 19.584L56.5995 19.2486L61.0884 36.0017Z" fill="#393939"/>
<path d="M65.5788 34.7987L64.3275 35.134L59.8385 18.3809L61.0898 18.0456L65.5788 34.7987Z" fill="#393939"/>
<path d="M56.3003 18.1306L55.0487 18.4659L53.8516 13.998L55.1031 13.6627L56.3003 18.1306Z" fill="#393939"/>
<path d="M60.7906 16.9275L59.5393 17.2628L58.3422 12.7949L59.5934 12.4596L60.7906 16.9275Z" fill="#393939"/>
<path d="M56.1644 13.3982L50.8263 14.8285C50.8038 14.8345 50.7808 14.8392 50.7582 14.8427L50.7459 14.8465C49.9756 15.053 49.1754 14.9511 48.493 14.5604C47.0753 13.746 46.5904 11.9344 47.4114 10.5213C47.8658 9.73884 48.659 9.20624 49.5451 9.0718C49.2276 8.26298 49.2693 7.32177 49.7398 6.51132C50.1386 5.82594 50.7798 5.33552 51.546 5.1302C52.3128 4.92475 53.1129 5.02867 53.7994 5.42266C54.4898 5.81913 54.9775 6.45852 55.1797 7.23049C55.1877 7.25154 55.1953 7.27328 55.2012 7.29514L56.623 12.6082C56.715 12.9517 56.5094 13.3057 56.1644 13.3982ZM50.5062 13.5797L55.2048 12.3207L53.9708 7.7096C53.9576 7.67822 53.9477 7.64538 53.9398 7.61174C53.8331 7.15185 53.553 6.7713 53.1505 6.54001C52.3773 6.09649 51.3113 6.38038 50.8606 7.15477C50.3978 7.95235 50.6711 8.97425 51.4698 9.43296C51.6246 9.52176 51.7283 9.66465 51.771 9.82397C51.8137 9.98328 51.7953 10.159 51.7057 10.3132C51.5262 10.6218 51.1303 10.7279 50.8209 10.5503C50.0469 10.1061 48.9813 10.3913 48.532 11.1644C48.0692 11.9615 48.3424 12.9837 49.1413 13.4426C49.531 13.6656 50.0043 13.7228 50.4343 13.5952C50.4582 13.5888 50.4816 13.5837 50.5062 13.5797Z" fill="#393939"/>
<path d="M61.5066 11.9673L56.1686 13.3977C55.8233 13.4902 55.4683 13.2869 55.3762 12.9432L53.9502 7.63125C53.9447 7.61073 53.9403 7.58963 53.9368 7.56882C53.7262 6.79736 53.8276 5.99832 54.2271 5.30897C54.6251 4.6241 55.2669 4.13381 56.0328 3.92858C56.7999 3.72304 57.6009 3.82703 58.2876 4.22156C59.1003 4.6882 59.6074 5.48234 59.7367 6.34157C60.5719 6.016 61.5249 6.07951 62.3096 6.5299C63.7267 7.34367 64.2126 9.15496 63.3929 10.568C62.9971 11.2482 62.3548 11.7366 61.585 11.9429L61.5722 11.9457C61.5508 11.954 61.5292 11.9613 61.5066 11.9673ZM56.4606 11.9849L61.091 10.7442C61.1228 10.7309 61.1558 10.7198 61.1899 10.713C61.1916 10.7125 61.1933 10.7121 61.1949 10.7116C61.6896 10.5791 62.0514 10.3049 62.2725 9.92414C62.7346 9.12826 62.4602 8.10632 61.6607 7.64725C60.8858 7.20275 59.8199 7.48807 59.3709 8.25997C59.1917 8.5685 58.7955 8.67465 58.486 8.49706C58.3313 8.40826 58.2276 8.26531 58.1849 8.10599C58.1422 7.94668 58.1606 7.77105 58.2502 7.61679C58.7126 6.82015 58.4383 5.79853 57.6386 5.33892C56.8643 4.8945 55.7972 5.17961 55.3482 5.95173C55.1161 6.35309 55.0634 6.82341 55.2 7.27583C55.21 7.30689 55.2167 7.33828 55.2215 7.36955L56.4606 11.9849Z" fill="#393939"/>
</g>
<g clip-path="url(#clip1_914_2716)">
<path d="M240.7 41.6218L240.203 41.7548L228.479 44.8962L227.317 40.5566L239.537 37.2823L240.7 41.6218Z" fill="#FBB133"/>
<path d="M227.819 46.4082L224.065 47.4141L228.52 64.0388L232.274 63.033L227.819 46.4082Z" fill="#29AAE3"/>
<path d="M226.323 40.8242L222.569 41.8301L223.732 46.1696L227.486 45.1638L226.323 40.8242Z" fill="#29AAE3"/>
<path d="M208.232 45.6719L221.575 42.0966L222.738 46.4362L211.014 49.5774L209.395 50.0114L208.232 45.6719Z" fill="#FBB133"/>
<path d="M223.071 47.6808L211.974 50.6543L216.428 67.279L227.526 64.3055L223.071 47.6808Z" fill="#FFB947"/>
<path d="M239.911 43.1688L228.813 46.1426L233.268 62.7673L244.366 59.7936L239.911 43.1688Z" fill="#FFB947"/>
<path d="M218.851 38.0247C217.742 37.3877 216.321 37.7686 215.678 38.876C215.035 39.9829 215.414 41.3973 216.523 42.0344C217.106 42.3684 217.771 42.4161 218.367 42.2334L218.366 42.2392L223.704 40.8088L222.281 35.4959C222.279 35.4974 222.278 35.4985 222.277 35.4989C222.137 34.8947 221.763 34.3487 221.181 34.0144C220.071 33.3777 218.651 33.7573 218.006 34.8659C217.364 35.9728 217.742 37.3877 218.851 38.0247Z" fill="#29AAE3"/>
<path d="M226.516 35.9718C227.159 34.8651 228.58 34.4847 229.691 35.122C230.801 35.7593 231.18 37.1735 230.538 38.2799C230.2 38.8607 229.649 39.2344 229.041 39.3744L229.046 39.3784L223.708 40.8087L222.282 35.4967C222.285 35.4968 222.285 35.4975 222.287 35.4972C222.107 34.9038 222.157 34.2439 222.494 33.6636C223.137 32.5572 224.557 32.1757 225.669 32.8136C226.779 33.451 227.159 34.8651 226.516 35.9718Z" fill="#29AAE3"/>
<path d="M245.325 60.8701L216.136 68.6912C215.79 68.7839 215.436 68.5808 215.344 68.2364L210.555 50.3665C210.463 50.0227 210.668 49.6692 211.014 49.5765L240.203 41.7553C240.549 41.6627 240.904 41.8663 240.996 42.2101L245.784 60.08C245.876 60.4243 245.671 60.7775 245.325 60.8701ZM216.428 67.2787L244.366 59.7929L239.911 43.1681L211.974 50.6539L216.428 67.2787Z" fill="#393939"/>
<path d="M241.659 42.7002L209.103 51.4237C208.757 51.5163 208.402 51.3123 208.31 50.9685L206.814 45.3842C206.722 45.0404 206.927 44.6867 207.273 44.5941L239.829 35.8707C240.174 35.7781 240.529 35.9817 240.621 36.3255L242.118 41.9098C242.21 42.2536 242.004 42.6076 241.659 42.7002ZM209.395 50.0109L240.7 41.6227L239.537 37.2831L208.232 45.6713L209.395 50.0109Z" fill="#393939"/>
<path d="M228.795 64.0349L227.543 64.3703L223.054 47.6172L224.306 47.2818L228.795 64.0349Z" fill="#393939"/>
<path d="M233.285 62.8319L232.034 63.1672L227.545 46.4141L228.796 46.0788L233.285 62.8319Z" fill="#393939"/>
<path d="M224.006 46.1638L222.755 46.4991L221.558 42.0312L222.809 41.6959L224.006 46.1638Z" fill="#393939"/>
<path d="M228.497 44.9607L227.245 45.296L226.048 40.8281L227.3 40.4928L228.497 44.9607Z" fill="#393939"/>
<path d="M223.87 41.4314L218.532 42.8617C218.51 42.8677 218.487 42.8724 218.464 42.8759L218.452 42.8798C217.682 43.0862 216.881 42.9843 216.199 42.5936C214.781 41.7792 214.296 39.9676 215.117 38.5545C215.572 37.772 216.365 37.2394 217.251 37.105C216.934 36.2962 216.975 35.355 217.446 34.5445C217.845 33.8591 218.486 33.3687 219.252 33.1634C220.019 32.958 220.819 33.0619 221.505 33.4559C222.196 33.8523 222.684 34.4917 222.886 35.2637C222.894 35.2847 222.901 35.3065 222.907 35.3283L224.329 40.6414C224.421 40.9849 224.215 41.3389 223.87 41.4314ZM218.212 41.6129L222.911 40.3539L221.677 35.7428C221.664 35.7114 221.654 35.6786 221.646 35.6449C221.539 35.1851 221.259 34.8045 220.857 34.5732C220.083 34.1297 219.017 34.4136 218.567 35.188C218.104 35.9856 218.377 37.0074 219.176 37.4662C219.331 37.555 219.434 37.6979 219.477 37.8572C219.52 38.0165 219.501 38.1922 219.412 38.3464C219.232 38.655 218.836 38.7611 218.527 38.5835C217.753 38.1393 216.687 38.4245 216.238 39.1977C215.775 39.9947 216.049 41.0169 216.847 41.4758C217.237 41.6988 217.71 41.756 218.14 41.6284C218.164 41.622 218.188 41.6169 218.212 41.6129Z" fill="#393939"/>
<path d="M229.213 40.0005L223.875 41.4309C223.529 41.5234 223.174 41.3201 223.082 40.9764L221.656 35.6644C221.651 35.6439 221.646 35.6228 221.643 35.602C221.432 34.8306 221.534 34.0315 221.933 33.3422C222.331 32.6573 222.973 32.167 223.739 31.9618C224.506 31.7562 225.307 31.8602 225.994 32.2548C226.806 32.7214 227.313 33.5155 227.443 34.3748C228.278 34.0492 229.231 34.1127 230.016 34.5631C231.433 35.3769 231.919 37.1882 231.099 38.6012C230.703 39.2814 230.061 39.7698 229.291 39.9761L229.278 39.9789C229.257 39.9873 229.235 39.9945 229.213 40.0005ZM224.167 40.0181L228.797 38.7774C228.829 38.7641 228.862 38.753 228.896 38.7462C228.898 38.7457 228.899 38.7453 228.901 38.7448C229.396 38.6123 229.757 38.3381 229.979 37.9573C230.441 37.1615 230.166 36.1395 229.367 35.6805C228.592 35.236 227.526 35.5213 227.077 36.2932C226.898 36.6017 226.502 36.7079 226.192 36.5303C226.037 36.4415 225.934 36.2985 225.891 36.1392C225.848 35.9799 225.867 35.8043 225.956 35.65C226.419 34.8534 226.144 33.8317 225.345 33.3721C224.57 32.9277 223.503 33.2128 223.054 33.9849C222.822 34.3863 222.769 34.8566 222.906 35.309C222.916 35.3401 222.923 35.3715 222.928 35.4028L224.167 40.0181Z" fill="#393939"/>
</g>
<g clip-path="url(#clip2_914_2716)">
<path d="M280.536 108.016L280.039 108.149L268.315 111.291L267.153 106.951L279.373 103.677L280.536 108.016Z" fill="#FBB133"/>
<path d="M267.655 112.803L263.901 113.809L268.356 130.433L272.11 129.427L267.655 112.803Z" fill="#29AAE3"/>
<path d="M266.159 107.219L262.405 108.225L263.568 112.564L267.322 111.558L266.159 107.219Z" fill="#29AAE3"/>
<path d="M248.068 112.066L261.411 108.491L262.573 112.831L250.85 115.972L249.231 116.406L248.068 112.066Z" fill="#FBB133"/>
<path d="M262.907 114.075L251.81 117.049L256.264 133.674L267.362 130.7L262.907 114.075Z" fill="#FFB947"/>
<path d="M279.747 109.563L268.649 112.537L273.104 129.162L284.202 126.188L279.747 109.563Z" fill="#FFB947"/>
<path d="M258.687 104.419C257.577 103.782 256.157 104.163 255.514 105.27C254.871 106.377 255.249 107.792 256.359 108.429C256.942 108.763 257.607 108.811 258.203 108.628L258.202 108.634L263.54 107.203L262.117 101.89C262.115 101.892 262.114 101.893 262.113 101.893C261.973 101.289 261.599 100.743 261.017 100.409C259.907 99.7722 258.487 100.152 257.842 101.26C257.2 102.367 257.577 103.782 258.687 104.419Z" fill="#29AAE3"/>
<path d="M266.352 102.366C266.995 101.26 268.416 100.879 269.527 101.517C270.637 102.154 271.016 103.568 270.374 104.674C270.036 105.255 269.485 105.629 268.877 105.769L268.882 105.773L263.544 107.203L262.118 101.891C262.121 101.891 262.121 101.892 262.123 101.892C261.943 101.298 261.993 100.638 262.33 100.058C262.973 98.9517 264.393 98.5702 265.505 99.2082C266.615 99.8455 266.995 101.26 266.352 102.366Z" fill="#29AAE3"/>
<path d="M285.161 127.265L255.972 135.086C255.626 135.178 255.272 134.975 255.18 134.631L250.391 116.761C250.299 116.417 250.504 116.064 250.85 115.971L280.039 108.15C280.385 108.057 280.74 108.261 280.832 108.605L285.62 126.475C285.712 126.819 285.507 127.172 285.161 127.265ZM256.264 133.673L284.202 126.187L279.747 109.563L251.81 117.048L256.264 133.673Z" fill="#393939"/>
<path d="M281.495 109.095L248.939 117.818C248.593 117.911 248.238 117.707 248.146 117.363L246.65 111.779C246.558 111.435 246.763 111.081 247.109 110.989L279.665 102.265C280.01 102.173 280.365 102.376 280.457 102.72L281.954 108.304C282.046 108.648 281.84 109.002 281.495 109.095ZM249.231 116.405L280.536 108.017L279.373 103.678L248.068 112.066L249.231 116.405Z" fill="#393939"/>
<path d="M268.63 130.429L267.379 130.765L262.89 114.012L264.141 113.676L268.63 130.429Z" fill="#393939"/>
<path d="M273.121 129.226L271.869 129.562L267.38 112.809L268.632 112.473L273.121 129.226Z" fill="#393939"/>
<path d="M263.842 112.558L262.591 112.894L261.394 108.426L262.645 108.09L263.842 112.558Z" fill="#393939"/>
<path d="M268.333 111.355L267.081 111.691L265.884 107.223L267.135 106.887L268.333 111.355Z" fill="#393939"/>
<path d="M263.706 107.826L258.368 109.256C258.346 109.262 258.323 109.267 258.3 109.27L258.288 109.274C257.518 109.481 256.717 109.379 256.035 108.988C254.617 108.174 254.132 106.362 254.953 104.949C255.408 104.167 256.201 103.634 257.087 103.5C256.77 102.691 256.811 101.75 257.282 100.939C257.681 100.254 258.322 99.7633 259.088 99.5579C259.855 99.3525 260.655 99.4564 261.341 99.8504C262.032 100.247 262.52 100.886 262.722 101.658C262.73 101.679 262.737 101.701 262.743 101.723L264.165 107.036C264.257 107.379 264.051 107.733 263.706 107.826ZM258.048 108.007L262.747 106.748L261.513 102.137C261.5 102.106 261.49 102.073 261.482 102.039C261.375 101.58 261.095 101.199 260.692 100.968C259.919 100.524 258.853 100.808 258.403 101.583C257.94 102.38 258.213 103.402 259.012 103.861C259.167 103.949 259.27 104.092 259.313 104.252C259.356 104.411 259.337 104.587 259.248 104.741C259.068 105.05 258.672 105.156 258.363 104.978C257.589 104.534 256.523 104.819 256.074 105.592C255.611 106.389 255.884 107.411 256.683 107.87C257.073 108.093 257.546 108.15 257.976 108.023C258 108.017 258.024 108.011 258.048 108.007Z" fill="#393939"/>
<path d="M269.049 106.395L263.711 107.825C263.365 107.918 263.01 107.715 262.918 107.371L261.492 102.059C261.487 102.038 261.482 102.017 261.479 101.997C261.268 101.225 261.37 100.426 261.769 99.7367C262.167 99.0518 262.809 98.5615 263.575 98.3563C264.342 98.1508 265.143 98.2548 265.83 98.6493C266.642 99.1159 267.149 99.9101 267.279 100.769C268.114 100.444 269.067 100.507 269.852 100.958C271.269 101.771 271.755 103.583 270.935 104.996C270.539 105.676 269.897 106.164 269.127 106.371L269.114 106.373C269.093 106.382 269.071 106.389 269.049 106.395ZM264.003 106.413L268.633 105.172C268.665 105.159 268.698 105.147 268.732 105.141C268.734 105.14 268.735 105.14 268.737 105.139C269.232 105.007 269.593 104.733 269.815 104.352C270.277 103.556 270.002 102.534 269.203 102.075C268.428 101.63 267.362 101.916 266.913 102.688C266.734 102.996 266.337 103.102 266.028 102.925C265.873 102.836 265.77 102.693 265.727 102.534C265.684 102.374 265.703 102.199 265.792 102.045C266.255 101.248 265.98 100.226 265.181 99.7667C264.406 99.3222 263.339 99.6073 262.89 100.379C262.658 100.781 262.605 101.251 262.742 101.704C262.752 101.735 262.759 101.766 262.764 101.797L264.003 106.413Z" fill="#393939"/>
</g>
<g clip-path="url(#clip3_914_2716)">
<path d="M184.266 121.624H182.772H147.468V108.371H184.266V121.624Z" fill="#FBB133"/>
<path d="M144.476 125.426H133.172V176.197H144.476V125.426Z" fill="#29AAE3"/>
<path d="M144.476 108.371H133.172V121.624H144.476V108.371Z" fill="#29AAE3"/>
<path d="M89.9984 108.371H130.178V121.624H94.8757H89.9984V108.371Z" fill="#FBB133"/>
<path d="M130.178 125.426H96.7605V176.197H130.178V125.426Z" fill="#FFB947"/>
<path d="M180.888 125.426H147.468V176.197H180.888V125.426Z" fill="#FFB947"/>
<path d="M125.591 94.6918C122.952 92.0294 118.674 92.0302 116.034 94.6944C113.393 97.3575 113.393 101.677 116.03 104.339C117.417 105.736 119.25 106.38 121.063 106.314L121.053 106.33H137.128L137.131 90.1051C137.124 90.1077 137.12 90.1101 137.116 90.1101C137.179 88.2821 136.539 86.4405 135.155 85.0437C132.516 82.3821 128.241 82.3796 125.594 85.0461C122.956 87.7094 122.952 92.0294 125.591 94.6918Z" fill="#29AAE3"/>
<path d="M148.673 94.6918C151.312 92.0294 155.591 92.0302 158.232 94.6944C160.87 97.3575 160.872 101.677 158.235 104.339C156.848 105.736 155.017 106.38 153.203 106.314L153.215 106.33H137.14L137.133 90.1051C137.142 90.1077 137.142 90.1101 137.146 90.1101C137.087 88.2821 137.727 86.4405 139.109 85.0437C141.748 82.3821 146.027 82.3796 148.67 85.0461C151.307 87.7094 151.312 92.0294 148.673 94.6918Z" fill="#29AAE3"/>
<path d="M182.772 180H94.8757C93.8343 180 92.9918 179.151 92.9918 178.099V123.526C92.9918 122.476 93.8343 121.625 94.8757 121.625H182.772C183.812 121.625 184.656 122.476 184.656 123.526V178.099C184.656 179.151 183.812 180 182.772 180ZM96.7605 176.199H180.888V125.428H96.7605V176.199Z" fill="#393939"/>
<path d="M186.15 125.427H88.1144C87.0731 125.427 86.2305 124.576 86.2305 123.526V106.471C86.2305 105.421 87.0731 104.57 88.1144 104.57H186.15C187.191 104.57 188.034 105.421 188.034 106.471V123.526C188.034 124.576 187.191 125.427 186.15 125.427ZM89.9984 121.625H184.267V108.372H89.9984V121.625Z" fill="#393939"/>
<path d="M133.947 176.394H130.178V125.23H133.947V176.394Z" fill="#393939"/>
<path d="M147.468 176.394H143.7V125.23H147.468V176.394Z" fill="#393939"/>
<path d="M133.947 121.82H130.178V108.176H133.947V121.82Z" fill="#393939"/>
<path d="M147.468 121.82H143.7V108.176H147.468V121.82Z" fill="#393939"/>
<path d="M137.128 108.231H121.054C120.986 108.231 120.918 108.227 120.851 108.219L120.814 108.221C118.494 108.221 116.323 107.32 114.7 105.686C111.33 102.283 111.331 96.7507 114.702 93.3509C116.567 91.4684 119.197 90.5564 121.788 90.8499C121.504 88.3028 122.33 85.6529 124.262 83.7028C125.899 82.0543 128.069 81.1465 130.377 81.1465C132.686 81.1465 134.855 82.0535 136.487 83.7002C138.129 85.357 139.018 87.5513 139.004 89.9052C139.011 89.9713 139.016 90.0391 139.016 90.1059L139.011 106.33C139.011 107.379 138.167 108.231 137.128 108.231ZM121.094 104.428H135.243L135.247 90.3474C135.234 90.2479 135.231 90.1468 135.234 90.0449C135.28 88.6531 134.78 87.3549 133.823 86.3885C131.985 84.5345 128.776 84.5295 126.927 86.3919C125.026 88.3112 125.025 91.4316 126.923 93.3485C127.291 93.7196 127.475 94.206 127.475 94.6925C127.475 95.1791 127.291 95.6656 126.923 96.0368C126.187 96.7791 124.995 96.7791 124.259 96.0368C122.419 94.1801 119.21 94.1793 117.366 96.0392C115.465 97.9569 115.464 101.078 117.363 102.996C118.29 103.929 119.576 104.453 120.88 104.418C120.953 104.418 121.022 104.421 121.094 104.428Z" fill="#393939"/>
<path d="M153.215 108.231H137.14C136.101 108.231 135.256 107.381 135.256 106.331L135.249 90.1067C135.249 90.0441 135.252 89.9805 135.258 89.9186C135.247 87.5597 136.134 85.3603 137.775 83.7011C139.409 82.0535 141.581 81.1465 143.888 81.1465C146.198 81.1465 148.37 82.0543 150.002 83.7028C151.934 85.6529 152.761 88.3028 152.477 90.8499C155.069 90.5599 157.699 91.4684 159.564 93.3509C162.933 96.7515 162.935 102.284 159.568 105.684C157.944 107.32 155.772 108.221 153.453 108.221L153.415 108.219C153.349 108.227 153.283 108.231 153.215 108.231ZM139.024 104.428H152.968C153.067 104.415 153.168 104.408 153.269 104.415C153.274 104.415 153.279 104.415 153.284 104.415C154.774 104.415 155.997 103.91 156.905 102.994C158.802 101.079 158.8 97.9576 156.9 96.0392C155.057 94.181 151.848 94.1801 150.005 96.0368C149.269 96.7791 148.076 96.7791 147.341 96.0368C146.973 95.6656 146.789 95.1791 146.789 94.6925C146.789 94.206 146.973 93.7196 147.341 93.3485C149.24 91.4316 149.238 88.3112 147.337 86.3911C145.497 84.5336 142.284 84.5312 140.441 86.3885C139.487 87.3549 138.985 88.6548 139.028 90.0482C139.033 90.1444 139.028 90.2389 139.018 90.3317L139.024 104.428Z" fill="#393939"/>
</g>
<g clip-path="url(#clip4_914_2716)">
<path d="M36.1078 79.9832L35.6114 80.1162L23.8876 83.2575L22.7249 78.918L34.945 75.6436L36.1078 79.9832Z" fill="#FBB133"/>
<path d="M23.2275 84.7695L19.4736 85.7754L23.9282 102.4L27.6821 101.394L23.2275 84.7695Z" fill="#29AAE3"/>
<path d="M21.731 79.1856L17.9772 80.1914L19.14 84.531L22.8938 83.5251L21.731 79.1856Z" fill="#29AAE3"/>
<path d="M3.64001 84.0332L16.983 80.458L18.1457 84.7975L6.42248 87.9388L4.8028 88.3728L3.64001 84.0332Z" fill="#FBB133"/>
<path d="M18.4793 86.0421L7.38196 89.0156L11.8365 105.64L22.9339 102.667L18.4793 86.0421Z" fill="#FFB947"/>
<path d="M35.3195 81.5302L24.2213 84.5039L28.6759 101.129L39.7741 98.1549L35.3195 81.5302Z" fill="#FFB947"/>
<path d="M14.2596 76.386C13.1497 75.749 11.729 76.13 11.0859 77.2373C10.4428 78.3443 10.8217 79.7586 11.9311 80.3957C12.5142 80.7297 13.1792 80.7774 13.7755 80.5947L13.7738 80.6005L19.1119 79.1702L17.6894 73.8573C17.6872 73.8588 17.6863 73.8598 17.6849 73.8602C17.5454 73.256 17.1712 72.71 16.5892 72.3757C15.4794 71.739 14.0592 72.1187 13.4144 73.2273C12.7718 74.3342 13.1497 75.749 14.2596 76.386Z" fill="#29AAE3"/>
<path d="M21.9247 74.3331C22.5676 73.2264 23.9885 72.846 25.0993 73.4834C26.209 74.1207 26.5885 75.5348 25.9466 76.6412C25.6086 77.222 25.0571 77.5957 24.4488 77.7358L24.454 77.7397L19.1159 79.17L17.69 73.8581C17.6932 73.8581 17.6934 73.8589 17.6948 73.8585C17.5148 73.2652 17.5657 72.6052 17.902 72.0249C18.5451 70.9185 19.9656 70.537 21.0773 71.175C22.1869 71.8123 22.5676 73.2264 21.9247 74.3331Z" fill="#29AAE3"/>
<path d="M40.7333 99.2314L11.5443 107.053C11.1984 107.145 10.8441 106.942 10.7519 106.598L5.96365 88.7279C5.87153 88.3841 6.07664 88.0305 6.42249 87.9378L35.6115 80.1167C35.957 80.0241 36.3118 80.2276 36.4039 80.5714L41.1921 98.4413C41.2844 98.7857 41.0788 99.1388 40.7333 99.2314ZM11.8366 105.64L39.7741 98.1542L35.3195 81.5294L7.38202 89.0153L11.8366 105.64Z" fill="#393939"/>
<path d="M37.0671 81.0615L4.51077 89.785C4.16497 89.8776 3.81041 89.6737 3.71829 89.3299L2.22196 83.7455C2.12984 83.4017 2.33499 83.0481 2.68079 82.9554L35.2371 74.232C35.5827 74.1394 35.9374 74.343 36.0296 74.6868L37.5259 80.2712C37.618 80.615 37.4126 80.9689 37.0671 81.0615ZM4.8028 88.3722L36.1078 79.984L34.945 75.6445L3.64002 84.0326L4.8028 88.3722Z" fill="#393939"/>
<path d="M24.2027 102.396L22.9511 102.732L18.4622 85.9785L19.7137 85.6432L24.2027 102.396Z" fill="#393939"/>
<path d="M28.693 101.193L27.4417 101.528L22.9528 84.7754L24.204 84.4401L28.693 101.193Z" fill="#393939"/>
<path d="M19.4146 84.5251L18.163 84.8605L16.9658 80.3926L18.2174 80.0572L19.4146 84.5251Z" fill="#393939"/>
<path d="M23.9049 83.322L22.6536 83.6573L21.4564 79.1895L22.7077 78.8542L23.9049 83.322Z" fill="#393939"/>
<path d="M19.2787 79.7927L13.9406 81.223C13.918 81.2291 13.8951 81.2338 13.8724 81.2372L13.8602 81.2411C13.0898 81.4475 12.2896 81.3456 11.6073 80.9549C10.1895 80.1405 9.70464 78.3289 10.5256 76.9158C10.98 76.1334 11.7733 75.6008 12.6593 75.4663C12.3418 74.6575 12.3836 73.7163 12.8541 72.9059C13.2528 72.2205 13.894 71.7301 14.6603 71.5247C15.427 71.3193 16.2272 71.4232 16.9137 71.8172C17.6041 72.2137 18.0918 72.8531 18.2939 73.625C18.3019 73.6461 18.3096 73.6678 18.3154 73.6897L19.7372 79.0027C19.8293 79.3462 19.6237 79.7002 19.2787 79.7927ZM13.6205 79.9743L18.3191 78.7153L17.085 74.1041C17.0719 74.0728 17.0619 74.0399 17.054 74.0063C16.9474 73.5464 16.6673 73.1658 16.2647 72.9345C15.4915 72.491 14.4255 72.7749 13.9749 73.5493C13.5121 74.3469 13.7853 75.3688 14.5841 75.8275C14.7388 75.9163 14.8426 76.0592 14.8853 76.2185C14.928 76.3778 14.9096 76.5535 14.82 76.7078C14.6405 77.0164 14.2446 77.1224 13.9352 76.9448C13.1612 76.5006 12.0955 76.7859 11.6463 77.559C11.1834 78.356 11.4567 79.3782 12.2555 79.8372C12.6452 80.0601 13.1185 80.1173 13.5485 79.9898C13.5725 79.9833 13.5959 79.9782 13.6205 79.9743Z" fill="#393939"/>
<path d="M24.6209 78.3619L19.2828 79.7922C18.9375 79.8847 18.5826 79.6815 18.4905 79.3377L17.0645 74.0258C17.059 74.0053 17.0545 73.9842 17.051 73.9634C16.8405 73.1919 16.9419 72.3929 17.3413 71.7035C17.7393 71.0186 18.3812 70.5283 19.1471 70.3231C19.9142 70.1176 20.7152 70.2216 21.4019 70.6161C22.2145 71.0827 22.7216 71.8769 22.851 72.7361C23.6862 72.4105 24.6391 72.474 25.4239 72.9244C26.841 73.7382 27.3268 75.5495 26.5071 76.9626C26.1114 77.6427 25.4691 78.1311 24.6992 78.3374L24.6864 78.3402C24.6651 78.3486 24.6435 78.3558 24.6209 78.3619ZM19.5748 78.3794L24.2053 77.1387C24.2371 77.1255 24.2701 77.1143 24.3042 77.1075C24.3059 77.107 24.3075 77.1066 24.3092 77.1062C24.8039 76.9736 25.1657 76.6995 25.3868 76.3187C25.8488 75.5228 25.5744 74.5008 24.775 74.0418C24.0001 73.5973 22.9341 73.8826 22.4851 74.6545C22.3059 74.963 21.9098 75.0692 21.6003 74.8916C21.4456 74.8028 21.3418 74.6598 21.2991 74.5005C21.2564 74.3412 21.2748 74.1656 21.3644 74.0113C21.8268 73.2147 21.5525 72.1931 20.7529 71.7335C19.9786 71.289 18.9114 71.5741 18.4625 72.3463C18.2303 72.7476 18.1777 73.2179 18.3142 73.6704C18.3243 73.7014 18.331 73.7328 18.3358 73.7641L19.5748 78.3794Z" fill="#393939"/>
</g>
<defs>
<clipPath id="clip0_914_2716">
<rect width="35.0002" height="33.5108" fill="white" transform="translate(36.8857 9.05859) rotate(-15)"/>
</clipPath>
<clipPath id="clip1_914_2716">
<rect width="35.0002" height="33.5108" fill="white" transform="translate(204.592 37.0918) rotate(-15)"/>
</clipPath>
<clipPath id="clip2_914_2716">
<rect width="35.0002" height="33.5108" fill="white" transform="translate(244.428 103.486) rotate(-15)"/>
</clipPath>
<clipPath id="clip3_914_2716">
<rect width="101.804" height="98.8532" fill="white" transform="translate(86.2305 81.1465)"/>
</clipPath>
<clipPath id="clip4_914_2716">
<rect width="35.0002" height="33.5108" fill="white" transform="translate(0 75.4531) rotate(-15)"/>
</clipPath>
</defs>
</svg>
