<svg width="94" height="49" viewBox="0 0 94 49" fill="none" xmlns="http://www.w3.org/2000/svg">
<g clip-path="url(#clip0_914_2673)" filter="url(#filter0_f_914_2673)">
<path d="M24.7056 20.5533V20.5518L23.3514 17.8066L21.7063 21.1401L21.7082 21.1398L23.3203 23.3602L24.7056 20.5533Z" fill="#EA348B"/>
<path d="M26.0918 23.3615L27.7059 21.1415L24.7057 15.0625L23.3516 17.8064L24.7057 20.5516L26.0918 23.3615Z" fill="#F7AED1"/>
<path d="M22.4633 25.9958L20.2218 23.811L20.2204 23.8105L17.1912 24.2501L19.8531 26.8448L19.8534 26.8429L19.8539 26.8428L22.4633 25.9958Z" fill="#FF9811"/>
<path d="M23.3212 23.3617L23.3204 23.3606L21.7086 21.1406L15 22.1154L17.1911 24.2512L20.2204 23.8116L23.3212 23.3617Z" fill="#FFDA44"/>
<path d="M24.7048 30.3704L24.7058 27.627L21.9351 29.0836L21.9343 29.0848L21.4163 32.1016L24.7065 30.3718L24.7049 30.3709V30.3705L24.7048 30.3704Z" fill="#64C37D"/>
<path d="M22.4644 25.9961L22.4631 25.9965L19.8537 26.8434L18.7078 33.5248L21.4161 32.101L21.9341 29.0842L22.4644 25.9961Z" fill="#91DC5A"/>
<path d="M29.5594 26.8455L29.5581 26.8469L29.5576 26.8467L26.9487 25.998L27.4779 29.0832L27.4787 29.0843L30.1878 30.5093L29.5594 26.8455Z" fill="#00D7DF"/>
<path d="M24.7046 30.3698L30.7049 33.5243L30.1877 30.5085L27.4786 29.0836L24.7056 27.625V27.6263L24.7046 30.3698L24.7046 30.3698Z" fill="#99EFF2"/>
<path d="M27.7053 21.1387L27.7061 21.1404L26.0925 23.3597L29.1901 23.8099L29.1915 23.8094L31.3839 21.6732L27.7053 21.1387Z" fill="#933EC5"/>
<path d="M29.5577 26.8457L34.412 22.1138L31.384 21.6738L29.1916 23.81L26.9475 25.9966L29.5577 26.8457Z" fill="#7C84E8"/>
</g>
<g clip-path="url(#clip1_914_2673)" filter="url(#filter1_f_914_2673)">
<path d="M68.8242 20.5533V20.5518L67.4701 17.8066L65.825 21.1401L65.8268 21.1398L67.439 23.3602L68.8242 20.5533Z" fill="#EA348B"/>
<path d="M70.2104 23.3615L71.8245 21.1415L68.8244 15.0625L67.4702 17.8064L68.8244 20.5516L70.2104 23.3615Z" fill="#F7AED1"/>
<path d="M66.5819 25.9958L64.3405 23.811L64.3391 23.8105L61.3098 24.2501L63.9717 26.8448L63.972 26.8429L63.9725 26.8428L66.5819 25.9958Z" fill="#FF9811"/>
<path d="M67.4398 23.3617L67.439 23.3606L65.8272 21.1406L59.1187 22.1154L61.3097 24.2512L64.339 23.8116L67.4398 23.3617Z" fill="#FFDA44"/>
<path d="M68.8235 30.3704L68.8244 27.627L66.0538 29.0836L66.053 29.0848L65.5349 32.1016L68.8252 30.3718L68.8235 30.3709V30.3705L68.8235 30.3704Z" fill="#64C37D"/>
<path d="M66.5831 25.9961L66.5817 25.9965L63.9723 26.8434L62.8264 33.5248L65.5347 32.101L66.0528 29.0842L66.5831 25.9961Z" fill="#91DC5A"/>
<path d="M73.6781 26.8455L73.6768 26.8469L73.6763 26.8467L71.0674 25.998L71.5965 29.0832L71.5974 29.0843L74.3065 30.5093L73.6781 26.8455Z" fill="#00D7DF"/>
<path d="M68.8233 30.3698L74.8236 33.5243L74.3063 30.5085L71.5972 29.0836L68.8242 27.625V27.6263L68.8232 30.3698L68.8233 30.3698Z" fill="#99EFF2"/>
<path d="M71.8239 21.1387L71.8248 21.1404L70.2112 23.3597L73.3088 23.8099L73.3102 23.8094L75.5025 21.6732L71.8239 21.1387Z" fill="#933EC5"/>
<path d="M73.6763 26.8457L78.5306 22.1138L75.5026 21.6738L73.3103 23.81L71.0662 25.9966L73.6763 26.8457Z" fill="#7C84E8"/>
</g>
<g clip-path="url(#clip2_914_2673)">
<path d="M46.7651 13.0385V13.0363L44.7133 8.87695L42.2207 13.9276L42.2236 13.9272L44.6662 17.2914L46.7651 13.0385Z" fill="#EA348B"/>
<path d="M48.8652 17.293L51.3108 13.9293L46.7652 4.71875L44.7134 8.87613L46.7652 13.0355L48.8652 17.293Z" fill="#F7AED1"/>
<path d="M43.3674 21.2857L39.9713 17.9753L39.9692 17.9746L35.3794 18.6406L39.4126 22.572L39.4131 22.5691L39.4138 22.5689L43.3674 21.2857Z" fill="#FF9811"/>
<path d="M44.6674 17.293L44.6662 17.2914L42.2241 13.9277L32.0596 15.4047L35.3794 18.6407L39.9692 17.9747L44.6674 17.293Z" fill="#FFDA44"/>
<path d="M46.7637 27.9107L46.7651 23.7539L42.5672 25.961L42.5659 25.9627L41.781 30.5337L46.7662 27.9127L46.7637 27.9114V27.9108L46.7637 27.9107Z" fill="#64C37D"/>
<path d="M43.3694 21.2852L43.3674 21.2857L39.4138 22.569L37.6775 32.6923L41.781 30.535L42.5659 25.9641L43.3694 21.2852Z" fill="#91DC5A"/>
<path d="M54.1192 22.5711L54.1172 22.5732L54.1165 22.573L50.1636 21.2871L50.9653 25.9615L50.9666 25.9633L55.0713 28.1223L54.1192 22.5711Z" fill="#00D7DF"/>
<path d="M46.7637 27.9108L55.8551 32.6903L55.0714 28.1209L50.9667 25.962L46.7651 23.752V23.7539L46.7637 27.9107L46.7637 27.9108Z" fill="#99EFF2"/>
<path d="M51.31 13.9258L51.3113 13.9284L48.8665 17.291L53.5598 17.9731L53.5619 17.9723L56.8837 14.7357L51.31 13.9258Z" fill="#933EC5"/>
<path d="M54.1164 22.5725L61.4714 15.403L56.8836 14.7363L53.5618 17.973L50.1616 21.286L54.1164 22.5725Z" fill="#7C84E8"/>
</g>
<defs>
<filter id="filter0_f_914_2673" x="0" y="-0.412109" width="49.4119" height="49.4121" filterUnits="userSpaceOnUse" color-interpolation-filters="sRGB">
<feFlood flood-opacity="0" result="BackgroundImageFix"/>
<feBlend mode="normal" in="SourceGraphic" in2="BackgroundImageFix" result="shape"/>
<feGaussianBlur stdDeviation="7.5" result="effect1_foregroundBlur_914_2673"/>
</filter>
<filter id="filter1_f_914_2673" x="44.1187" y="-0.412109" width="49.4119" height="49.4121" filterUnits="userSpaceOnUse" color-interpolation-filters="sRGB">
<feFlood flood-opacity="0" result="BackgroundImageFix"/>
<feBlend mode="normal" in="SourceGraphic" in2="BackgroundImageFix" result="shape"/>
<feGaussianBlur stdDeviation="7.5" result="effect1_foregroundBlur_914_2673"/>
</filter>
<clipPath id="clip0_914_2673">
<rect width="19.4119" height="19.4119" fill="white" transform="translate(15 14.5879)"/>
</clipPath>
<clipPath id="clip1_914_2673">
<rect width="19.4119" height="19.4119" fill="white" transform="translate(59.1187 14.5879)"/>
</clipPath>
<clipPath id="clip2_914_2673">
<rect width="29.4119" height="29.4119" fill="white" transform="translate(32.0596 4)"/>
</clipPath>
</defs>
</svg>
