<svg width="326" height="152" viewBox="0 0 326 152" fill="none" xmlns="http://www.w3.org/2000/svg">
<g filter="url(#filter0_f_914_2965)">
<path d="M59.9988 76.6562V76.6495L53.7204 63.9219L46.093 79.3769L46.1018 79.3755L53.5762 89.67L59.9988 76.6562Z" fill="#EA348B"/>
<path d="M66.4251 89.6782L73.9084 79.3854L59.9989 51.2012L53.7205 63.9227L59.9989 76.6503L66.4251 89.6782Z" fill="#F7AED1"/>
<path d="M49.6017 101.893L39.2095 91.7637L39.2032 91.7617L25.1584 93.7997L37.5001 105.83L37.5014 105.821L37.5037 105.82L49.6017 101.893Z" fill="#FF9811"/>
<path d="M53.5798 89.6767L53.5762 89.6715L46.1031 79.3789L15 83.8985L25.1585 93.8006L39.2033 91.7627L53.5798 89.6767Z" fill="#FFDA44"/>
<path d="M59.9941 122.171L59.9986 109.451L47.153 116.205L47.1492 116.21L44.7473 130.197L60.002 122.177L59.9944 122.173V122.171L59.9941 122.171Z" fill="#64C37D"/>
<path d="M49.608 101.893L49.6019 101.894L37.5038 105.821L32.1909 136.798L44.7475 130.197L47.1493 116.21L49.608 101.893Z" fill="#91DC5A"/>
<path d="M82.5023 105.827L82.4963 105.834L82.494 105.833L70.3982 101.898L72.8514 116.202L72.8555 116.208L85.4157 122.814L82.5023 105.827Z" fill="#00D7DF"/>
<path d="M59.9944 122.169L87.8138 136.795L85.4155 122.812L72.8553 116.206L59.9986 109.443V109.449L59.9941 122.169L59.9944 122.169Z" fill="#99EFF2"/>
<path d="M73.906 79.375L73.9098 79.3829L66.4287 89.6726L80.7903 91.7597L80.7966 91.7574L90.9612 81.8532L73.906 79.375Z" fill="#933EC5"/>
<path d="M82.494 105.832L105 83.8935L90.9613 81.8535L80.7967 91.7577L70.3923 101.895L82.494 105.832Z" fill="#7C84E8"/>
</g>
<g filter="url(#filter1_f_914_2965)">
<path d="M265.999 76.6562V76.6495L259.72 63.9219L252.093 79.3769L252.102 79.3755L259.576 89.67L265.999 76.6562Z" fill="#EA348B"/>
<path d="M272.425 89.6782L279.908 79.3854L265.999 51.2012L259.72 63.9227L265.999 76.6503L272.425 89.6782Z" fill="#F7AED1"/>
<path d="M255.602 101.893L245.21 91.7637L245.203 91.7617L231.158 93.7997L243.5 105.83L243.501 105.821L243.504 105.82L255.602 101.893Z" fill="#FF9811"/>
<path d="M259.58 89.6767L259.576 89.6715L252.103 79.3789L221 83.8985L231.159 93.8006L245.203 91.7627L259.58 89.6767Z" fill="#FFDA44"/>
<path d="M265.994 122.171L265.999 109.451L253.153 116.205L253.149 116.21L250.747 130.197L266.002 122.177L265.994 122.173V122.171L265.994 122.171Z" fill="#64C37D"/>
<path d="M255.608 101.893L255.602 101.894L243.504 105.821L238.191 136.798L250.747 130.197L253.149 116.21L255.608 101.893Z" fill="#91DC5A"/>
<path d="M288.502 105.827L288.496 105.834L288.494 105.833L276.398 101.898L278.851 116.202L278.855 116.208L291.416 122.814L288.502 105.827Z" fill="#00D7DF"/>
<path d="M265.994 122.169L293.814 136.795L291.416 122.812L278.855 116.206L265.999 109.443V109.449L265.994 122.169L265.994 122.169Z" fill="#99EFF2"/>
<path d="M279.906 79.375L279.91 79.3829L272.429 89.6726L286.79 91.7597L286.797 91.7574L296.961 81.8532L279.906 79.375Z" fill="#933EC5"/>
<path d="M288.494 105.832L311 83.8935L296.961 81.8535L286.797 91.7577L276.392 101.895L288.494 105.832Z" fill="#7C84E8"/>
</g>
<path d="M163.498 42.1013V42.091L153.941 22.7168L142.331 46.2428L142.344 46.2407L153.722 61.9111L163.498 42.1013Z" fill="#EA348B"/>
<path d="M173.28 61.9221L184.672 46.2542L163.498 3.35156L153.941 22.7165L163.498 42.0907L173.28 61.9221Z" fill="#F7AED1"/>
<path d="M147.672 80.5165L131.852 65.0968L131.843 65.0938L110.464 68.196L129.25 86.5084L129.252 86.495L129.256 86.494L147.672 80.5165Z" fill="#FF9811"/>
<path d="M153.727 61.9197L153.721 61.9118L142.346 46.2441L95 53.124L110.464 68.1972L131.843 65.095L153.727 61.9197Z" fill="#FFDA44"/>
<path d="M163.491 111.382L163.498 92.0195L143.944 102.3L143.938 102.308L140.282 123.6L163.503 111.391L163.492 111.385V111.382L163.491 111.382Z" fill="#64C37D"/>
<path d="M147.681 80.5137L147.672 80.5164L129.256 86.4939L121.168 133.648L140.282 123.599L143.938 102.308L147.681 80.5137Z" fill="#91DC5A"/>
<path d="M197.754 86.5043L197.744 86.5139L197.741 86.5129L179.328 80.5234L183.063 102.297L183.069 102.305L202.188 112.362L197.754 86.5043Z" fill="#00D7DF"/>
<path d="M163.492 111.382L205.839 133.644L202.188 112.36L183.069 102.304L163.498 92.0098V92.019L163.491 111.381L163.492 111.382Z" fill="#99EFF2"/>
<path d="M184.668 46.2402L184.674 46.2522L173.286 61.9154L195.148 65.0924L195.157 65.089L210.63 50.0127L184.668 46.2402Z" fill="#933EC5"/>
<path d="M197.741 86.5123L232 53.1171L210.63 50.0117L195.157 65.0881L179.319 80.5197L197.741 86.5123Z" fill="#7C84E8"/>
<defs>
<filter id="filter0_f_914_2965" x="0" y="34" width="120" height="120" filterUnits="userSpaceOnUse" color-interpolation-filters="sRGB">
<feFlood flood-opacity="0" result="BackgroundImageFix"/>
<feBlend mode="normal" in="SourceGraphic" in2="BackgroundImageFix" result="shape"/>
<feGaussianBlur stdDeviation="7.5" result="effect1_foregroundBlur_914_2965"/>
</filter>
<filter id="filter1_f_914_2965" x="206" y="34" width="120" height="120" filterUnits="userSpaceOnUse" color-interpolation-filters="sRGB">
<feFlood flood-opacity="0" result="BackgroundImageFix"/>
<feBlend mode="normal" in="SourceGraphic" in2="BackgroundImageFix" result="shape"/>
<feGaussianBlur stdDeviation="7.5" result="effect1_foregroundBlur_914_2965"/>
</filter>
</defs>
</svg>
