<svg width="226" height="208" viewBox="0 0 226 208" fill="none" xmlns="http://www.w3.org/2000/svg">
<g clip-path="url(#clip0_914_3017)" filter="url(#filter0_f_914_3017)">
<path d="M62.962 127.782V127.774L55.9911 113.643L47.5225 130.802L47.5322 130.801L55.831 142.231L62.962 127.782Z" fill="#EA348B"/>
<path d="M70.0971 142.239L78.4059 130.81L62.9621 99.5176L55.9912 113.642L62.9621 127.774L70.0971 142.239Z" fill="#F7AED1"/>
<path d="M51.4184 155.802L39.88 144.555L39.873 144.553L24.2791 146.815L37.982 160.172L37.9835 160.163L37.986 160.162L51.4184 155.802Z" fill="#FF9811"/>
<path d="M55.8351 142.236L55.8311 142.231L47.5338 130.803L13 135.821L24.279 146.815L39.8729 144.552L55.8351 142.236Z" fill="#FFDA44"/>
<path d="M62.9571 178.314L62.9621 164.191L48.6996 171.69L48.6953 171.696L46.0286 187.226L62.9659 178.321L62.9574 178.317V178.314L62.9571 178.314Z" fill="#64C37D"/>
<path d="M51.4251 155.799L51.4183 155.801L37.9859 160.161L32.0869 194.555L46.0285 187.225L48.6953 171.695L51.4251 155.799Z" fill="#91DC5A"/>
<path d="M87.9478 160.169L87.941 160.176L87.9385 160.175L74.5085 155.807L77.2324 171.688L77.2369 171.694L91.1824 179.029L87.9478 160.169Z" fill="#00D7DF"/>
<path d="M62.9573 178.315L93.8452 194.554L91.1824 179.029L77.2368 171.694L62.962 164.186V164.192L62.957 178.315L62.9573 178.315Z" fill="#99EFF2"/>
<path d="M78.4034 130.799L78.4076 130.808L70.1013 142.232L86.047 144.55L86.054 144.547L97.3398 133.55L78.4034 130.799Z" fill="#933EC5"/>
<path d="M87.9384 160.174L112.927 135.816L97.3397 133.551L86.0539 144.547L74.502 155.803L87.9384 160.174Z" fill="#7C84E8"/>
</g>
<g clip-path="url(#clip1_914_3017)" filter="url(#filter1_f_914_3017)">
<path d="M91.3203 32.7487V32.7436L86.6103 23.1953L80.8882 34.7897L80.8948 34.7887L86.5021 42.5116L91.3203 32.7487Z" fill="#EA348B"/>
<path d="M96.1411 42.5179L101.755 34.7962L91.3202 13.6523L86.6101 23.1961L91.3202 32.7443L96.1411 42.5179Z" fill="#F7AED1"/>
<path d="M83.5203 51.6829L75.724 44.0836L75.7193 44.082L65.1829 45.6109L74.4416 54.6359L74.4426 54.6293L74.4443 54.6288L83.5203 51.6829Z" fill="#FF9811"/>
<path d="M86.5047 42.5165L86.502 42.5126L80.8957 34.791L57.562 38.1816L65.183 45.6103L75.7194 44.0814L86.5047 42.5165Z" fill="#FFDA44"/>
<path d="M91.3169 66.8939L91.3202 57.3516L81.6834 62.4181L81.6805 62.4222L79.8787 72.9153L91.3228 66.8986L91.317 66.8956V66.8941L91.3169 66.8939Z" fill="#64C37D"/>
<path d="M83.5251 51.6797L83.5205 51.681L74.4445 54.6269L70.4587 77.8661L79.8787 72.9138L81.6806 62.4206L83.5251 51.6797Z" fill="#91DC5A"/>
<path d="M108.202 54.6331L108.198 54.6379L108.196 54.6374L99.1218 51.6855L100.962 62.4162L100.965 62.4202L110.388 67.3764L108.202 54.6331Z" fill="#00D7DF"/>
<path d="M91.3171 66.8928L112.187 77.8646L110.388 67.3752L100.965 62.419L91.3203 57.3457V57.3503L91.3169 66.8926L91.3171 66.8928Z" fill="#99EFF2"/>
<path d="M101.754 34.7891L101.756 34.795L96.144 42.5143L106.918 44.0801L106.923 44.0784L114.548 36.6482L101.754 34.7891Z" fill="#933EC5"/>
<path d="M108.196 54.6371L125.08 38.1789L114.548 36.6484L106.923 44.0786L99.1174 51.6838L108.196 54.6371Z" fill="#7C84E8"/>
</g>
<g clip-path="url(#clip2_914_3017)">
<path d="M159.513 79.262V79.2522L150.375 60.7285L139.274 83.2217L139.287 83.2197L150.165 98.2021L159.513 79.262Z" fill="#EA348B"/>
<path d="M168.865 98.2121L179.757 83.232L159.513 42.2129L150.375 60.7277L159.513 79.2513L168.865 98.2121Z" fill="#F7AED1"/>
<path d="M144.381 115.99L129.256 101.247L129.247 101.244L108.807 104.21L126.769 121.719L126.771 121.706L126.774 121.705L144.381 115.99Z" fill="#FF9811"/>
<path d="M150.171 98.2081L150.165 98.2005L139.289 83.2207L94.022 89.7985L108.807 104.21L129.247 101.244L150.171 98.2081Z" fill="#FFDA44"/>
<path d="M159.506 145.5L159.513 126.988L140.817 136.817L140.812 136.825L137.316 157.182L159.518 145.51L159.507 145.504V145.501L159.506 145.5Z" fill="#64C37D"/>
<path d="M144.39 115.988L144.381 115.991L126.774 121.706L119.042 166.79L137.316 157.182L140.812 136.826L144.39 115.988Z" fill="#91DC5A"/>
<path d="M192.264 121.714L192.256 121.724L192.252 121.723L174.648 115.996L178.219 136.814L178.225 136.821L196.505 146.436L192.264 121.714Z" fill="#00D7DF"/>
<path d="M159.507 145.5L199.995 166.785L196.504 146.436L178.224 136.821L159.513 126.979V126.987L159.506 145.5L159.507 145.5Z" fill="#99EFF2"/>
<path d="M179.754 83.2188L179.759 83.2302L168.871 98.2058L189.773 101.243L189.782 101.24L204.576 86.8256L179.754 83.2188Z" fill="#933EC5"/>
<path d="M192.252 121.722L225.007 89.7932L204.576 86.8242L189.782 101.239L174.64 115.993L192.252 121.722Z" fill="#7C84E8"/>
</g>
<defs>
<filter id="filter0_f_914_3017" x="0" y="84.0723" width="125.927" height="125.928" filterUnits="userSpaceOnUse" color-interpolation-filters="sRGB">
<feFlood flood-opacity="0" result="BackgroundImageFix"/>
<feBlend mode="normal" in="SourceGraphic" in2="BackgroundImageFix" result="shape"/>
<feGaussianBlur stdDeviation="6.5" result="effect1_foregroundBlur_914_3017"/>
</filter>
<filter id="filter1_f_914_3017" x="44.562" y="-1" width="93.5183" height="93.5176" filterUnits="userSpaceOnUse" color-interpolation-filters="sRGB">
<feFlood flood-opacity="0" result="BackgroundImageFix"/>
<feBlend mode="normal" in="SourceGraphic" in2="BackgroundImageFix" result="shape"/>
<feGaussianBlur stdDeviation="6.5" result="effect1_foregroundBlur_914_3017"/>
</filter>
<clipPath id="clip0_914_3017">
<rect width="99.927" height="99.927" fill="white" transform="translate(13 97.0723)"/>
</clipPath>
<clipPath id="clip1_914_3017">
<rect width="67.5182" height="67.5182" fill="white" transform="translate(57.562 12)"/>
</clipPath>
<clipPath id="clip2_914_3017">
<rect width="130.985" height="130.985" fill="white" transform="translate(94.022 39.0078)"/>
</clipPath>
</defs>
</svg>
