<svg width="26" height="12" viewBox="0 0 26 12" fill="none" xmlns="http://www.w3.org/2000/svg">
<ellipse cx="13" cy="8" rx="12" ry="3" stroke="#29AAE3"/>
<g style="mix-blend-mode:multiply">
<path d="M24.5 8C24.5 8.1283 24.3839 8.39369 23.8026 8.7373C23.2547 9.06113 22.4286 9.3701 21.364 9.63625C19.2425 10.1666 16.2851 10.5 13 10.5C9.71486 10.5 6.75751 10.1666 4.63599 9.63625C3.57138 9.3701 2.74531 9.06113 2.19743 8.7373C1.61609 8.39369 1.5 8.1283 1.5 8C1.5 7.8717 1.61609 7.60631 2.19743 7.2627C2.74531 6.93887 3.57138 6.6299 4.63599 6.36375C6.75751 5.83337 9.71486 5.5 13 5.5C16.2851 5.5 19.2425 5.83337 21.364 6.36375C22.4286 6.6299 23.2547 6.93887 23.8026 7.2627C24.3839 7.60631 24.5 7.8717 24.5 8Z" stroke="#29AAE3" stroke-opacity="0.55"/>
<path d="M24.5 7C24.5 7.1283 24.3839 7.39369 23.8026 7.7373C23.2547 8.06113 22.4286 8.3701 21.364 8.63625C19.2425 9.16663 16.2851 9.5 13 9.5C9.71486 9.5 6.75751 9.16663 4.63599 8.63625C3.57138 8.3701 2.74531 8.06113 2.19743 7.7373C1.61609 7.39369 1.5 7.1283 1.5 7C1.5 6.8717 1.61609 6.60631 2.19743 6.2627C2.74531 5.93887 3.57138 5.6299 4.63599 5.36375C6.75751 4.83337 9.71486 4.5 13 4.5C16.2851 4.5 19.2425 4.83337 21.364 5.36375C22.4286 5.6299 23.2547 5.93887 23.8026 6.2627C24.3839 6.60631 24.5 6.8717 24.5 7Z" stroke="#29AAE3" stroke-opacity="0.55"/>
<path d="M24.5 6C24.5 6.1283 24.3839 6.39369 23.8026 6.7373C23.2547 7.06113 22.4286 7.3701 21.364 7.63625C19.2425 8.16663 16.2851 8.5 13 8.5C9.71486 8.5 6.75751 8.16663 4.63599 7.63625C3.57138 7.3701 2.74531 7.06113 2.19743 6.7373C1.61609 6.39369 1.5 6.1283 1.5 6C1.5 5.8717 1.61609 5.60631 2.19743 5.2627C2.74531 4.93887 3.57138 4.6299 4.63599 4.36375C6.75751 3.83337 9.71486 3.5 13 3.5C16.2851 3.5 19.2425 3.83337 21.364 4.36375C22.4286 4.6299 23.2547 4.93887 23.8026 5.2627C24.3839 5.60631 24.5 5.8717 24.5 6Z" stroke="#29AAE3" stroke-opacity="0.55"/>
<path d="M24.5 5C24.5 5.1283 24.3839 5.39369 23.8026 5.7373C23.2547 6.06113 22.4286 6.3701 21.364 6.63625C19.2425 7.16663 16.2851 7.5 13 7.5C9.71486 7.5 6.75751 7.16663 4.63599 6.63625C3.57138 6.3701 2.74531 6.06113 2.19743 5.7373C1.61609 5.39369 1.5 5.1283 1.5 5C1.5 4.8717 1.61609 4.60631 2.19743 4.2627C2.74531 3.93887 3.57138 3.6299 4.63599 3.36375C6.75751 2.83337 9.71486 2.5 13 2.5C16.2851 2.5 19.2425 2.83337 21.364 3.36375C22.4286 3.6299 23.2547 3.93887 23.8026 4.2627C24.3839 4.60631 24.5 4.8717 24.5 5Z" stroke="#29AAE3" stroke-opacity="0.55"/>
<path d="M24.5 4C24.5 4.1283 24.3839 4.39369 23.8026 4.7373C23.2547 5.06113 22.4286 5.3701 21.364 5.63625C19.2425 6.16663 16.2851 6.5 13 6.5C9.71486 6.5 6.75751 6.16663 4.63599 5.63625C3.57138 5.3701 2.74531 5.06113 2.19743 4.7373C1.61609 4.39369 1.5 4.1283 1.5 4C1.5 3.8717 1.61609 3.60631 2.19743 3.2627C2.74531 2.93887 3.57138 2.6299 4.63599 2.36375C6.75751 1.83337 9.71486 1.5 13 1.5C16.2851 1.5 19.2425 1.83337 21.364 2.36375C22.4286 2.6299 23.2547 2.93887 23.8026 3.2627C24.3839 3.60631 24.5 3.8717 24.5 4Z" stroke="#29AAE3" stroke-opacity="0.55"/>
<path d="M24.5 3C24.5 3.1283 24.3839 3.39369 23.8026 3.7373C23.2547 4.06113 22.4286 4.3701 21.364 4.63625C19.2425 5.16663 16.2851 5.5 13 5.5C9.71486 5.5 6.75751 5.16663 4.63599 4.63625C3.57138 4.3701 2.74531 4.06113 2.19743 3.7373C1.61609 3.39369 1.5 3.1283 1.5 3C1.5 2.8717 1.61609 2.60631 2.19743 2.2627C2.74531 1.93887 3.57138 1.6299 4.63599 1.36375C6.75751 0.833371 9.71486 0.5 13 0.5C16.2851 0.5 19.2425 0.833371 21.364 1.36375C22.4286 1.6299 23.2547 1.93887 23.8026 2.2627C24.3839 2.60631 24.5 2.8717 24.5 3Z" stroke="#29AAE3" stroke-opacity="0.55"/>
</g>
</svg>
