<svg width="110" height="93" viewBox="0 0 110 93" fill="none" xmlns="http://www.w3.org/2000/svg">
<path fill-rule="evenodd" clip-rule="evenodd" d="M3.47809 0C1.83739 0 1.12885 2.079 2.42808 3.08095C3.35237 3.79376 3.31297 5.20072 2.35023 5.86069L1.25432 6.61193C-0.0649554 7.5163 -0.00531162 9.48266 1.36635 10.3054C2.73802 11.1282 2.79766 13.0945 1.47838 13.9989L1.26983 14.1418C-0.0963407 15.0784 -0.0963399 17.0946 1.26983 18.0311L1.36635 18.0973C2.77901 19.0657 2.77901 21.1505 1.36635 22.1189L1.20053 22.2326C-0.196016 23.1899 -0.30481 25.2113 0.98091 26.313L1.77348 26.9921C3.01611 28.0569 2.85011 30.0262 1.44676 30.868C-0.00146339 31.7367 -0.121384 33.7905 1.21591 34.8218L1.69338 35.19C3.06118 36.2449 3.16156 38.2728 1.90461 39.4575L0.957915 40.3498C-0.340132 41.5733 -0.176401 43.683 1.29488 44.6915C2.81117 45.731 2.9293 47.9256 1.53334 49.1218L0.980907 49.5951C-0.304812 50.6969 -0.196015 52.7182 1.20053 53.6755L1.46288 53.8554C2.82905 54.7919 2.80685 56.8233 1.44068 57.7599C0.045181 58.7165 0.0849194 60.8125 1.53584 61.6827C2.89537 62.4982 3.05619 64.4061 1.85235 65.4376L1.03043 66.1419C-0.247231 67.2367 -0.0765479 69.2616 1.36635 70.127C2.80925 70.9925 2.97993 73.0174 1.70227 74.1122L1.18925 74.5518C-0.232368 75.7699 -0.175219 77.9868 1.30728 79.1301L1.53146 79.303C2.95927 80.4041 3.01431 82.5392 1.64514 83.7125L0.701461 84.5211C-0.381496 85.4491 -0.178561 87.1787 1.08978 87.8308L2.27742 88.4414C3.15935 88.8948 3.20011 90.1406 2.34969 90.6507C1.24962 91.3106 1.71744 93 3.00024 93H4.29969H5H6.43302H107C108.657 93 110 91.6569 110 90V3C110 1.34315 108.657 0 107 0H6.43302H5H3.47809Z" fill="#F15A23"/>
<path d="M17.8652 43.26C19.8385 43.26 21.2918 43.6533 22.2252 44.44C23.1718 45.2267 23.6452 46.28 23.6452 47.6C23.6452 48.4533 23.4318 49.2333 23.0052 49.94C22.5785 50.6333 21.9252 51.1933 21.0452 51.62C20.1785 52.0333 19.1052 52.24 17.8252 52.24C16.8385 52.24 15.8652 52.1133 14.9052 51.86C13.9585 51.5933 13.1518 51.22 12.4852 50.74L13.7652 48.26C14.2985 48.66 14.9118 48.9733 15.6052 49.2C16.2985 49.4133 17.0118 49.52 17.7452 49.52C18.5585 49.52 19.1985 49.36 19.6652 49.04C20.1318 48.72 20.3652 48.2733 20.3652 47.7C20.3652 47.1 20.1185 46.6467 19.6252 46.34C19.1452 46.0333 18.3052 45.88 17.1052 45.88H13.5252L14.2452 38H22.7852V40.6H16.9452L16.7252 43.26H17.8652ZM30.9597 52.24C29.7997 52.24 28.7664 51.9533 27.8597 51.38C26.953 50.8067 26.2397 49.98 25.7197 48.9C25.213 47.8067 24.9597 46.5067 24.9597 45C24.9597 43.4933 25.213 42.2 25.7197 41.12C26.2397 40.0267 26.953 39.1933 27.8597 38.62C28.7664 38.0467 29.7997 37.76 30.9597 37.76C32.1197 37.76 33.153 38.0467 34.0597 38.62C34.9664 39.1933 35.673 40.0267 36.1797 41.12C36.6997 42.2 36.9597 43.4933 36.9597 45C36.9597 46.5067 36.6997 47.8067 36.1797 48.9C35.673 49.98 34.9664 50.8067 34.0597 51.38C33.153 51.9533 32.1197 52.24 30.9597 52.24ZM30.9597 49.5C31.813 49.5 32.4797 49.1333 32.9597 48.4C33.453 47.6667 33.6997 46.5333 33.6997 45C33.6997 43.4667 33.453 42.3333 32.9597 41.6C32.4797 40.8667 31.813 40.5 30.9597 40.5C30.1197 40.5 29.453 40.8667 28.9597 41.6C28.4797 42.3333 28.2397 43.4667 28.2397 45C28.2397 46.5333 28.4797 47.6667 28.9597 48.4C29.453 49.1333 30.1197 49.5 30.9597 49.5ZM41.7739 45.56C40.7472 45.56 39.9072 45.2133 39.2539 44.52C38.6139 43.8133 38.2939 42.8733 38.2939 41.7C38.2939 40.5267 38.6139 39.5933 39.2539 38.9C39.9072 38.1933 40.7472 37.84 41.7739 37.84C42.8006 37.84 43.6339 38.1933 44.2739 38.9C44.9139 39.5933 45.2339 40.5267 45.2339 41.7C45.2339 42.8733 44.9139 43.8133 44.2739 44.52C43.6339 45.2133 42.8006 45.56 41.7739 45.56ZM50.1139 38H52.4939L42.9339 52H40.5539L50.1139 38ZM41.7739 43.92C42.2272 43.92 42.5806 43.7333 42.8339 43.36C43.1006 42.9867 43.2339 42.4333 43.2339 41.7C43.2339 40.9667 43.1006 40.4133 42.8339 40.04C42.5806 39.6667 42.2272 39.48 41.7739 39.48C41.3339 39.48 40.9806 39.6733 40.7139 40.06C40.4472 40.4333 40.3139 40.98 40.3139 41.7C40.3139 42.42 40.4472 42.9733 40.7139 43.36C40.9806 43.7333 41.3339 43.92 41.7739 43.92ZM51.2739 52.16C50.6072 52.16 50.0072 52.0067 49.4739 51.7C48.9539 51.38 48.5472 50.9267 48.2539 50.34C47.9606 49.7533 47.8139 49.0733 47.8139 48.3C47.8139 47.5267 47.9606 46.8467 48.2539 46.26C48.5472 45.6733 48.9539 45.2267 49.4739 44.92C50.0072 44.6 50.6072 44.44 51.2739 44.44C52.3006 44.44 53.1339 44.7933 53.7739 45.5C54.4272 46.1933 54.7539 47.1267 54.7539 48.3C54.7539 49.4733 54.4272 50.4133 53.7739 51.12C53.1339 51.8133 52.3006 52.16 51.2739 52.16ZM51.2739 50.52C51.7272 50.52 52.0806 50.3333 52.3339 49.96C52.6006 49.5733 52.7339 49.02 52.7339 48.3C52.7339 47.58 52.6006 47.0333 52.3339 46.66C52.0806 46.2733 51.7272 46.08 51.2739 46.08C50.8339 46.08 50.4806 46.2667 50.2139 46.64C49.9472 47.0133 49.8139 47.5667 49.8139 48.3C49.8139 49.0333 49.9472 49.5867 50.2139 49.96C50.4806 50.3333 50.8339 50.52 51.2739 50.52ZM63.733 52.24C62.2796 52.24 60.9663 51.9267 59.793 51.3C58.633 50.6733 57.7196 49.8133 57.053 48.72C56.3996 47.6133 56.073 46.3733 56.073 45C56.073 43.6267 56.3996 42.3933 57.053 41.3C57.7196 40.1933 58.633 39.3267 59.793 38.7C60.9663 38.0733 62.2796 37.76 63.733 37.76C65.1863 37.76 66.493 38.0733 67.653 38.7C68.813 39.3267 69.7263 40.1933 70.393 41.3C71.0596 42.3933 71.393 43.6267 71.393 45C71.393 46.3733 71.0596 47.6133 70.393 48.72C69.7263 49.8133 68.813 50.6733 67.653 51.3C66.493 51.9267 65.1863 52.24 63.733 52.24ZM63.733 49.48C64.5596 49.48 65.3063 49.2933 65.973 48.92C66.6396 48.5333 67.1596 48 67.533 47.32C67.9196 46.64 68.113 45.8667 68.113 45C68.113 44.1333 67.9196 43.36 67.533 42.68C67.1596 42 66.6396 41.4733 65.973 41.1C65.3063 40.7133 64.5596 40.52 63.733 40.52C62.9063 40.52 62.1596 40.7133 61.493 41.1C60.8263 41.4733 60.2996 42 59.913 42.68C59.5396 43.36 59.353 44.1333 59.353 45C59.353 45.8667 59.5396 46.64 59.913 47.32C60.2996 48 60.8263 48.5333 61.493 48.92C62.1596 49.2933 62.9063 49.48 63.733 49.48ZM77.068 40.6V44.3H83.548V46.9H77.068V52H73.828V38H84.408V40.6H77.068ZM89.8414 40.6V44.3H96.3214V46.9H89.8414V52H86.6014V38H97.1814V40.6H89.8414Z" fill="white"/>
</svg>
